<?xml version="1.0" standalone="no"?>
<!DOCTYPE svg PUBLIC "-//W3C//DTD SVG 20010904//EN"
 "http://www.w3.org/TR/2001/REC-SVG-20010904/DTD/svg10.dtd">
<svg version="1.0" xmlns="http://www.w3.org/2000/svg"
 width="512.000000pt" height="512.000000pt" viewBox="0 0 512.000000 512.000000"
 preserveAspectRatio="xMidYMid meet">
<metadata>
Created by potrace 1.14, written by Peter Selinger 2001-2017
</metadata>
<g transform="translate(0.000000,512.000000) scale(0.100000,-0.100000)"
fill="#000000" stroke="none">
<path d="M0 2560 l0 -2560 2560 0 2560 0 0 2560 0 2560 -2560 0 -2560 0 0
-2560z m1675 938 c28 -5 93 -30 145 -56 81 -39 109 -59 191 -141 145 -146 196
-264 187 -436 -5 -91 -31 -159 -97 -252 -49 -68 -46 -74 47 -98 247 -65 392
-235 392 -460 0 -234 -172 -436 -455 -532 -77 -27 -87 -28 -290 -27 -175 0
-227 4 -309 22 -161 34 -213 80 -237 203 -15 78 -23 937 -10 1184 11 237 44
485 70 530 44 77 181 101 366 63z m1369 -19 c252 -85 436 -194 521 -310 83
-113 131 -283 123 -430 -4 -68 -11 -91 -48 -166 -71 -145 -186 -245 -345 -299
-78 -26 -124 -61 -134 -103 -5 -20 -12 -115 -16 -211 -12 -323 -32 -423 -94
-454 -22 -12 -60 -16 -141 -16 -98 0 -112 2 -131 21 -55 55 -64 134 -80 728
-12 433 -6 727 22 1075 10 133 19 155 77 185 56 30 111 26 246 -20z"/>
<path d="M1496 3438 c-22 -31 -20 -59 14 -275 67 -430 121 -593 196 -593 73 0
238 103 297 186 61 86 71 155 36 249 -54 145 -237 353 -369 419 -88 44 -150
49 -174 14z"/>
<path d="M1681 2387 c-56 -20 -71 -50 -82 -168 -7 -85 -42 -353 -66 -520 -5
-32 -2 -39 22 -55 26 -17 33 -17 173 0 228 28 341 71 421 162 63 71 84 139 79
254 -5 111 -25 167 -83 225 -50 49 -103 72 -226 96 -112 21 -188 23 -238 6z"/>
<path d="M3078 3349 c-24 -14 -23 -56 7 -290 13 -107 34 -274 45 -373 11 -98
25 -185 31 -192 31 -38 136 1 215 80 76 77 99 139 98 266 -1 98 -19 153 -88
271 -62 106 -134 182 -208 218 -67 34 -75 35 -100 20z"/>
</g>
</svg>
